<svg width="21" height="14" viewBox="0 0 21 14" fill="none" xmlns="http://www.w3.org/2000/svg">
<path d="M0.9 7.93333C0.64 7.93333 0.4252 7.84498 0.2556 7.66827C0.0852001 7.49238 0 7.26963 0 7C0 6.73037 0.0852001 6.5072 0.2556 6.33049C0.4252 6.15461 0.64 6.06667 0.9 6.06667H20.1C20.36 6.06667 20.5752 6.15461 20.7456 6.33049C20.9152 6.5072 21 6.73037 21 7C21 7.26963 20.9152 7.49238 20.7456 7.66827C20.5752 7.84498 20.36 7.93333 20.1 7.93333H0.9ZM0.9 14C0.64 14 0.4252 13.9121 0.2556 13.7362C0.0852001 13.5595 0 13.3363 0 13.0667C0 12.8178 0.0852001 12.6 0.2556 12.4133C0.4252 12.2267 0.64 12.1333 0.9 12.1333H12.9C13.16 12.1333 13.3752 12.2267 13.5456 12.4133C13.7152 12.6 13.8 12.8178 13.8 13.0667C13.8 13.3363 13.7152 13.5595 13.5456 13.7362C13.3752 13.9121 13.16 14 12.9 14H0.9ZM0.9 1.86667C0.64 1.86667 0.4252 1.77333 0.2556 1.58667C0.0852001 1.4 0 1.18222 0 0.933333C0 0.663704 0.0852001 0.440948 0.2556 0.265066C0.4252 0.0883553 0.64 0 0.9 0H20.1C20.36 0 20.5752 0.0883553 20.7456 0.265066C20.9152 0.440948 21 0.663704 21 0.933333C21 1.18222 20.9152 1.4 20.7456 1.58667C20.5752 1.77333 20.36 1.86667 20.1 1.86667H0.9Z" fill="#1DA1F2"/>
</svg>
