<svg width="18" height="23" viewBox="0 0 18 23" fill="none" xmlns="http://www.w3.org/2000/svg">
<path d="M0.866883 18.8692C0.61645 18.8692 0.409554 18.7825 0.246195 18.6091C0.0820647 18.4357 0 18.2334 0 18.0023C0 17.7518 0.0820647 17.5446 0.246195 17.3804C0.409554 17.2171 0.61645 17.1354 0.866883 17.1354H2.31169V8.75552C2.31169 7.21439 2.79329 5.83201 3.75649 4.60835C4.7197 3.38547 5.97186 2.60065 7.51299 2.2539V1.44481C7.51299 1.04026 7.65284 0.69813 7.93256 0.418416C8.2115 0.139472 8.55325 0 8.95779 0C9.36234 0 9.70408 0.139472 9.98303 0.418416C10.2627 0.69813 10.4026 1.04026 10.4026 1.44481V2.2539C11.9437 2.60065 13.1959 3.38547 14.1591 4.60835C15.1223 5.83201 15.6039 7.21439 15.6039 8.75552V17.1354H17.0487C17.2991 17.1354 17.5064 17.2171 17.6705 17.3804C17.8339 17.5446 17.9156 17.7518 17.9156 18.0023C17.9156 18.2334 17.8339 18.4357 17.6705 18.6091C17.5064 18.7825 17.2991 18.8692 17.0487 18.8692H0.866883ZM8.95779 22.25C8.37987 22.25 7.88864 22.0477 7.48409 21.6432C7.07955 21.2386 6.87727 20.7474 6.87727 20.1695H11.0383C11.0383 20.7474 10.836 21.2386 10.4315 21.6432C10.0269 22.0477 9.53572 22.25 8.95779 22.25ZM4.04545 17.1354H13.8701V8.75552C13.8701 7.38777 13.3885 6.22692 12.4253 5.27296C11.4621 4.31978 10.3063 3.84318 8.95779 3.84318C7.60931 3.84318 6.45346 4.31978 5.49026 5.27296C4.52706 6.22692 4.04545 7.38777 4.04545 8.75552V17.1354Z" fill="#1DA1F2"/>
</svg>
